<?xml version="1.0" encoding="utf-8"?>
<!-- Generator: Adobe Illustrator 18.1.1, SVG Export Plug-In . SVG Version: 6.00 Build 0)  -->
<!DOCTYPE svg PUBLIC "-//W3C//DTD SVG 1.1//EN" "http://www.w3.org/Graphics/SVG/1.1/DTD/svg11.dtd">
<svg version="1.1" id="_x31_0" xmlns="http://www.w3.org/2000/svg" xmlns:xlink="http://www.w3.org/1999/xlink" x="0px" y="0px"
	 viewBox="0 0 512 512" style="enable-background:new 0 0 512 512;" xml:space="preserve">
<style type="text/css">
	.st0{fill:#374149;}
</style>
<g>
	<polygon class="st0" points="343.77,188.027 168.23,188.027 168.23,294.039 168.23,294.363 168.23,294.523 343.77,294.523 	"/>
	<path class="st0" d="M437.019,74.981C390.691,28.652,326.691,0,256,0C185.305,0,121.305,28.652,74.981,74.981
		C28.652,121.309,0,185.309,0,256s28.652,134.691,74.981,181.019C121.305,483.348,185.305,512,256,512
		c70.691,0,134.691-28.652,181.019-74.981C483.344,390.691,512,326.691,512,256S483.344,121.309,437.019,74.981z M340.317,400.703
		H171.683v-41.867h168.634V400.703z M380.496,330.859v0.391H131.504v-179.95h248.992V330.859z"/>
</g>
</svg>
