<?xml version="1.0" encoding="utf-8"?>
<!-- Generator: Adobe Illustrator 18.1.1, SVG Export Plug-In . SVG Version: 6.00 Build 0)  -->
<!DOCTYPE svg PUBLIC "-//W3C//DTD SVG 1.1//EN" "http://www.w3.org/Graphics/SVG/1.1/DTD/svg11.dtd">
<svg version="1.1" id="_x31_0" xmlns="http://www.w3.org/2000/svg" xmlns:xlink="http://www.w3.org/1999/xlink" x="0px" y="0px"
	 viewBox="0 0 512 512" style="enable-background:new 0 0 512 512;" xml:space="preserve">
<style type="text/css">
	.st0{fill:#374149;}
</style>
<g>
	<path class="st0" d="M256,0C114.641,0,0,114.562,0,256c0,141.359,114.641,256,256,256s256-114.641,256-256
		C512,114.562,397.359,0,256,0z M319.125,180.402v-0.141l0.157,0.141v-49.602h36.797v81.762l41.078,35.918l30.742,27.038h-47.098
		L256,166.32L131.199,275.519h-27.16l-19.985-0.117L256,125.039l38.062,33.301L319.125,180.402z M238.238,326.961v59.922h-77.199
		v-111.68l24.285-21.238L256,192.774v0.027l94.961,83.039v111.043h-76.722v-59.578l0.004-0.184h-0.004v-0.16H238.238z"/>
</g>
</svg>
